<svg viewBox="0 0 330.30642486726094 72.5673" height="72.5673" width="330.30642486726094"><g><svg viewBox="0 0 330.30642486726094 72.5673" height="72.5673" width="330.30642486726094"><g><svg viewBox="0 0 330.30642486726094 72.5673" height="72.5673" width="330.30642486726094"><g><svg viewBox="0 0 330.30642486726094 72.5673" height="72.5673" width="330.30642486726094"><g><svg viewBox="0 0 330.30642486726094 72.5673" height="72.5673" width="330.30642486726094"><g><svg><g></g><g></g></svg></g><g><svg><g></g><g><svg></svg></g></svg></g><g id="text-0"><svg viewBox="0 0 330.30642486726094 72.5673" height="72.5673" width="330.30642486726094"><g><svg xmlns="http://www.w3.org/2000/svg" xmlns:xlink="http://www.w3.org/1999/xlink" version="1.1" x="0" y="0" viewBox="9.875003814697266 9.10474967956543 80.250244140625 81.78924560546875" style="enable-background:new 0 0 100 100;" xml:space="preserve" height="72.5673" width="71.20182486726092" class="icon-x-0" data-fill-palette-color="accent" id="x-0"><path d="M57.833 29.296c-3.336 3.336-3.336 8.765 0 12.101 1.616 1.616 3.765 2.506 6.05 2.506 2.285 0 4.434-0.89 6.05-2.506 3.336-3.336 3.336-8.765 0-12.101C66.597 25.959 61.169 25.961 57.833 29.296zM68.519 39.983c-1.238 1.238-2.885 1.92-4.636 1.92-1.751 0-3.398-0.682-4.636-1.92-2.556-2.557-2.556-6.716 0-9.272 1.278-1.278 2.957-1.917 4.636-1.917 1.679 0 3.358 0.64 4.636 1.917C71.075 33.267 71.075 37.426 68.519 39.983z" fill="#ffffff" data-fill-palette-color="accent"></path><path d="M16.081 46.206l10.486 4.692c0.13 0.058 0.27 0.087 0.408 0.087 0.188 0 0.376-0.054 0.54-0.158 0.284-0.181 0.457-0.493 0.461-0.83 0.001-0.125 0.267-12.546 9.458-18.187 0.419-0.258 0.589-0.782 0.4-1.236-0.188-0.455-0.679-0.705-1.159-0.588l-9.954 2.414c-0.2 0.048-0.38 0.157-0.516 0.312L15.739 44.633c-0.209 0.239-0.293 0.563-0.226 0.873S15.792 46.076 16.081 46.206zM27.5 34.27l5.256-1.275c-5.16 5.239-6.394 12.407-6.688 15.489l-7.932-3.55L27.5 34.27z" fill="#ffffff" data-fill-palette-color="accent"></path><path d="M89.832 9.398c-0.391-0.391-1.023-0.391-1.414 0L84.616 13.2c-0.052-0.018-0.1-0.043-0.155-0.052-17.471-3.051-33.664 7.595-42.99 18.572-2.142 2.521-4.042 5.146-5.652 7.803-0.15 0.251-3.693 6.182-4.495 9.899-0.054 0.253-0.009 0.516 0.126 0.735 0.058 0.094 0.596 0.962 1.407 2.178-0.632 1.06-1.899 3.258-2.138 4.259-0.097 0.404-0.393 1.636 4.367 6.741l0.833 0.832c4.169 3.886 5.746 4.384 6.401 4.384 0.143 0 0.243-0.024 0.315-0.041 1.001-0.241 3.198-1.507 4.258-2.139 1.216 0.811 2.085 1.349 2.179 1.407 0.159 0.098 0.341 0.148 0.525 0.148 0.07 0 0.141-0.008 0.211-0.022 3.717-0.802 9.648-4.345 9.902-4.497 2.654-1.607 5.278-3.508 7.799-5.65 10.978-9.324 21.622-25.515 18.572-42.989-0.009-0.054-0.034-0.103-0.052-0.154l3.803-3.803C90.223 10.421 90.223 9.788 89.832 9.398zM42.269 66.537c-0.753-0.214-3.145-2.117-4.96-3.808l-0.783-0.782c-1.714-1.84-3.619-4.232-3.833-4.985 0.17-0.535 0.791-1.707 1.417-2.801 1.339 1.903 2.996 4.088 4.53 5.621l0.807 0.808c0 0 0 0 0 0 1.534 1.534 3.718 3.191 5.621 4.531C43.974 65.746 42.803 66.368 42.269 66.537zM66.215 56.235c-2.44 2.073-4.977 3.911-7.537 5.461-0.056 0.034-5.473 3.269-8.904 4.162-1.348-0.853-6.268-4.037-8.913-6.682l-0.807-0.808c-2.642-2.642-5.828-7.563-6.682-8.912 0.893-3.432 4.128-8.848 4.16-8.901 1.552-2.563 3.39-5.1 5.463-7.54 8.504-10.01 24.262-20.672 40.812-17.949l0.356 0.356C86.886 31.97 76.226 47.731 66.215 56.235z" fill="#ffffff" data-fill-palette-color="accent"></path><path d="M68.657 61.397c-0.454-0.191-0.979-0.019-1.236 0.399-5.641 9.19-18.063 9.456-18.188 9.458-0.336 0.005-0.649 0.178-0.83 0.462-0.181 0.283-0.208 0.64-0.07 0.946l4.692 10.486c0.129 0.29 0.389 0.501 0.7 0.568 0.07 0.016 0.142 0.023 0.213 0.023 0.24 0 0.476-0.087 0.66-0.249l11.921-10.468c0.155-0.136 0.264-0.315 0.312-0.516l2.414-9.953C69.36 62.077 69.111 61.585 68.657 61.397zM64.961 71.73l-10.665 9.364-3.55-7.933c3.082-0.295 10.25-1.529 15.49-6.688L64.961 71.73z" fill="#ffffff" data-fill-palette-color="accent"></path><path d="M31.839 69.244c-0.026 1.915-0.473 3.946-1.479 5.588-1.539 2.514-4.541 3.925-7.303 4.616-1.237 0.309-2.564 0.597-3.841 0.398-0.021-0.003-0.104-0.032-0.123-0.022 0.961-0.503 1.724-2.334 2.548-3.524 0.824-1.19 2.182-2.182 2.182-2.182-1.51-0.564-3.013 1.304-3.013 1.304-0.137-1.19 0.641-3.249 0.641-3.249 1.327-3.021 2.883-3.707 4.302-4.531 1.419-0.824 3.478-1.19 3.478-1.19-0.914-0.504-2.104-0.364-3.102-0.296-1.101 0.075-2.195 0.223-3.282 0.41-3.138 0.541-5.767 2.806-6.929 5.716-0.571 1.429-0.789 2.978-1.432 4.373-0.654 1.418-1.556 2.607-2.429 3.893-0.422 0.62-0.817 1.266-1.089 1.967-0.255 0.657-0.104 1.46-0.455 2.06 0.32-0.549 1.556-1.19 2.747-1.466 1.191-0.276 2.089 0.444 2.089 0.444s-2.022 0.816-3.556 2.76c-1.534 1.944-1.918 4.581-1.918 4.581 1.186-2.022 3.712-2.635 5.814-3.219 2.349-0.652 4.731-1.178 7.086-1.813 2.352-0.634 4.597-1.837 6.296-3.599 2.426-2.517 3.825-5.878 3.812-9.186 0 0-0.082-2.37-1.043-4.018C31.84 69.122 31.84 69.183 31.839 69.244z" fill="#ffffff" data-fill-palette-color="accent"></path></svg></g><g transform="matrix(1,0,0,1,88.33452486726092,0)"><svg width="241.97190000000003" viewBox="4.5 -34.599998474121094 149.5399932861328 44.849998474121094" height="72.5673" data-palette-color="#ffffff"><path d="M8.65 0L4.5 0 4.5-32.8 8.65-32.8 8.65-16.35 8.8-16.35 22.45-32.8 27.15-32.8 16.9-20.3 28.75 0 24.1 0 14.3-17.05 8.65-10.4 8.65 0ZM42.15 0.6L42.15 0.6Q39.9 0.6 37.87-0.25 35.85-1.1 34.3-2.73 32.75-4.35 31.82-6.73 30.9-9.1 30.9-12.1L30.9-12.1Q30.9-15.15 31.82-17.53 32.75-19.9 34.3-21.55 35.85-23.2 37.87-24.05 39.9-24.9 42.15-24.9L42.15-24.9Q44.4-24.9 46.42-24.05 48.45-23.2 50-21.55 51.55-19.9 52.47-17.53 53.4-15.15 53.4-12.1L53.4-12.1Q53.4-9.1 52.47-6.73 51.55-4.35 50-2.73 48.45-1.1 46.42-0.25 44.4 0.6 42.15 0.6ZM42.15-2.8L42.15-2.8Q43.7-2.8 45-3.48 46.3-4.15 47.22-5.38 48.15-6.6 48.65-8.3 49.15-10 49.15-12.1L49.15-12.1Q49.15-14.2 48.65-15.93 48.15-17.65 47.22-18.9 46.3-20.15 45-20.83 43.7-21.5 42.15-21.5L42.15-21.5Q40.6-21.5 39.3-20.83 38-20.15 37.07-18.9 36.15-17.65 35.65-15.93 35.15-14.2 35.15-12.1L35.15-12.1Q35.15-10 35.65-8.3 36.15-6.6 37.07-5.38 38-4.15 39.3-3.48 40.6-2.8 42.15-2.8ZM66.15 0.6L66.15 0.6Q63.55 0.6 61.2-0.35 58.85-1.3 57.1-2.75L57.1-2.75 59.15-5.5Q60.75-4.2 62.42-3.4 64.1-2.6 66.3-2.6L66.3-2.6Q68.7-2.6 69.9-3.7 71.1-4.8 71.1-6.4L71.1-6.4Q71.1-7.35 70.6-8.05 70.1-8.75 69.32-9.28 68.55-9.8 67.55-10.2 66.55-10.6 65.55-11L65.55-11Q64.25-11.45 62.95-12.03 61.65-12.6 60.62-13.43 59.6-14.25 58.95-15.35 58.3-16.45 58.3-18L58.3-18Q58.3-19.45 58.87-20.73 59.45-22 60.52-22.93 61.6-23.85 63.15-24.38 64.7-24.9 66.65-24.9L66.65-24.9Q68.95-24.9 70.87-24.1 72.8-23.3 74.2-22.15L74.2-22.15 72.25-19.55Q71-20.5 69.65-21.1 68.3-21.7 66.7-21.7L66.7-21.7Q64.4-21.7 63.32-20.65 62.25-19.6 62.25-18.2L62.25-18.2Q62.25-17.35 62.7-16.73 63.15-16.1 63.9-15.63 64.65-15.15 65.62-14.78 66.6-14.4 67.65-14L67.65-14Q68.95-13.5 70.27-12.95 71.6-12.4 72.65-11.58 73.7-10.75 74.37-9.55 75.05-8.35 75.05-6.65L75.05-6.65Q75.05-5.15 74.47-3.85 73.9-2.55 72.77-1.55 71.65-0.55 69.97 0.03 68.3 0.6 66.15 0.6ZM84.84 0L80.74 0 80.74-24.3 84.14-24.3 84.49-20.8 84.64-20.8Q86.24-22.55 88.12-23.73 89.99-24.9 92.19-24.9L92.19-24.9Q94.99-24.9 96.57-23.68 98.14-22.45 98.89-20.25L98.89-20.25Q100.79-22.35 102.72-23.63 104.64-24.9 106.89-24.9L106.89-24.9Q110.64-24.9 112.47-22.5 114.29-20.1 114.29-15.4L114.29-15.4 114.29 0 110.19 0 110.19-14.85Q110.19-18.3 109.09-19.83 107.99-21.35 105.69-21.35L105.69-21.35Q102.94-21.35 99.59-17.6L99.59-17.6 99.59 0 95.49 0 95.49-14.85Q95.49-18.3 94.39-19.83 93.29-21.35 90.94-21.35L90.94-21.35Q88.19-21.35 84.84-17.6L84.84-17.6 84.84 0ZM126.29 0L122.19 0 122.19-24.3 126.29-24.3 126.29 0ZM124.29-29.3L124.29-29.3Q123.09-29.3 122.27-30.05 121.44-30.8 121.44-31.95L121.44-31.95Q121.44-33.15 122.27-33.88 123.09-34.6 124.29-34.6L124.29-34.6Q125.49-34.6 126.32-33.88 127.14-33.15 127.14-31.95L127.14-31.95Q127.14-30.8 126.32-30.05 125.49-29.3 124.29-29.3ZM154.04 10.25L149.89 10.25 149.89 1.6 150.09-2.8Q148.64-1.35 146.76-0.38 144.89 0.6 142.79 0.6L142.79 0.6Q138.19 0.6 135.46-2.7 132.74-6 132.74-12.1L132.74-12.1Q132.74-15.05 133.61-17.43 134.49-19.8 135.94-21.45 137.39-23.1 139.29-24 141.19-24.9 143.29-24.9L143.29-24.9Q145.39-24.9 146.99-24.18 148.59-23.45 150.24-22L150.24-22 150.34-22 150.74-24.3 154.04-24.3 154.04 10.25ZM143.69-2.85L143.69-2.85Q145.39-2.85 146.89-3.68 148.39-4.5 149.89-6.2L149.89-6.2 149.89-18.9Q148.34-20.3 146.91-20.88 145.49-21.45 143.99-21.45L143.99-21.45Q142.54-21.45 141.26-20.78 139.99-20.1 139.04-18.88 138.09-17.65 137.54-15.95 136.99-14.25 136.99-12.15L136.99-12.15Q136.99-7.75 138.74-5.3 140.49-2.85 143.69-2.85Z" opacity="1" transform="matrix(1,0,0,1,0,0)" fill="#ffffff" class="undefined-text-0" data-fill-palette-color="primary"></path></svg></g></svg></g></svg></g></svg></g></svg></g></svg></g></svg>
